<mxfile host="app.diagrams.net" modified="2023-11-08T08:23:51.028Z" agent="Mozilla/5.0 (Windows NT 10.0; Win64; x64) AppleWebKit/537.36 (KHTML, like Gecko) Chrome/118.0.0.0 Safari/537.36" etag="BvQdG4abwbWiIwzOx1p7" version="22.0.8" type="github">
  <diagram name="Page-1" id="WQUE8yJzWbAxndRynaDb">
    <mxGraphModel dx="1434" dy="782" grid="1" gridSize="10" guides="1" tooltips="1" connect="1" arrows="1" fold="1" page="1" pageScale="1" pageWidth="850" pageHeight="1100" math="0" shadow="0">
      <root>
        <mxCell id="0" />
        <mxCell id="1" parent="0" />
        <mxCell id="VzMq9Z7by6uNYJWWXD4P-3" value="" style="rounded=0;whiteSpace=wrap;html=1;" vertex="1" parent="1">
          <mxGeometry x="340" y="127" width="170" height="130" as="geometry" />
        </mxCell>
        <mxCell id="VzMq9Z7by6uNYJWWXD4P-9" value="" style="rounded=0;whiteSpace=wrap;html=1;" vertex="1" parent="1">
          <mxGeometry x="340" y="80" width="170" height="47" as="geometry" />
        </mxCell>
        <mxCell id="VzMq9Z7by6uNYJWWXD4P-10" value="Kunjungan" style="text;html=1;strokeColor=none;fillColor=none;align=center;verticalAlign=middle;whiteSpace=wrap;rounded=0;" vertex="1" parent="1">
          <mxGeometry x="380" y="88.5" width="90" height="30" as="geometry" />
        </mxCell>
        <mxCell id="VzMq9Z7by6uNYJWWXD4P-12" value="+kelas: char" style="text;strokeColor=none;fillColor=none;align=left;verticalAlign=middle;spacingLeft=4;spacingRight=4;overflow=hidden;points=[[0,0.5],[1,0.5]];portConstraint=eastwest;rotatable=0;whiteSpace=wrap;html=1;" vertex="1" parent="1">
          <mxGeometry x="340" y="197" width="140" height="30" as="geometry" />
        </mxCell>
        <mxCell id="VzMq9Z7by6uNYJWWXD4P-6" value="+id_buku: int" style="text;strokeColor=none;fillColor=none;align=left;verticalAlign=middle;spacingLeft=4;spacingRight=4;overflow=hidden;points=[[0,0.5],[1,0.5]];portConstraint=eastwest;rotatable=0;whiteSpace=wrap;html=1;" vertex="1" parent="1">
          <mxGeometry x="340" y="127" width="207" height="30" as="geometry" />
        </mxCell>
        <mxCell id="VzMq9Z7by6uNYJWWXD4P-7" value="+nama: char" style="text;strokeColor=none;fillColor=none;align=left;verticalAlign=middle;spacingLeft=4;spacingRight=4;overflow=hidden;points=[[0,0.5],[1,0.5]];portConstraint=eastwest;rotatable=0;whiteSpace=wrap;html=1;" vertex="1" parent="1">
          <mxGeometry x="340" y="157" width="207" height="16" as="geometry" />
        </mxCell>
        <mxCell id="VzMq9Z7by6uNYJWWXD4P-8" value="+anggota: char" style="text;strokeColor=none;fillColor=none;align=left;verticalAlign=middle;spacingLeft=4;spacingRight=4;overflow=hidden;points=[[0,0.5],[1,0.5]];portConstraint=eastwest;rotatable=0;whiteSpace=wrap;html=1;" vertex="1" parent="1">
          <mxGeometry x="340" y="177" width="207" height="30" as="geometry" />
        </mxCell>
        <mxCell id="VzMq9Z7by6uNYJWWXD4P-16" value="" style="endArrow=none;html=1;rounded=0;entryX=0;entryY=0.5;entryDx=0;entryDy=0;" edge="1" parent="1" target="VzMq9Z7by6uNYJWWXD4P-12">
          <mxGeometry width="50" height="50" relative="1" as="geometry">
            <mxPoint x="180" y="320" as="sourcePoint" />
            <mxPoint x="300" y="240" as="targetPoint" />
          </mxGeometry>
        </mxCell>
        <mxCell id="VzMq9Z7by6uNYJWWXD4P-17" value="" style="rounded=0;whiteSpace=wrap;html=1;" vertex="1" parent="1">
          <mxGeometry x="80" y="367" width="170" height="130" as="geometry" />
        </mxCell>
        <mxCell id="VzMq9Z7by6uNYJWWXD4P-18" value="" style="rounded=0;whiteSpace=wrap;html=1;" vertex="1" parent="1">
          <mxGeometry x="80" y="320" width="170" height="47" as="geometry" />
        </mxCell>
        <mxCell id="VzMq9Z7by6uNYJWWXD4P-19" value="Guru" style="text;html=1;strokeColor=none;fillColor=none;align=center;verticalAlign=middle;whiteSpace=wrap;rounded=0;" vertex="1" parent="1">
          <mxGeometry x="110" y="328.5" width="100" height="30" as="geometry" />
        </mxCell>
        <mxCell id="VzMq9Z7by6uNYJWWXD4P-21" value="+id: int" style="text;strokeColor=none;fillColor=none;align=left;verticalAlign=middle;spacingLeft=4;spacingRight=4;overflow=hidden;points=[[0,0.5],[1,0.5]];portConstraint=eastwest;rotatable=0;whiteSpace=wrap;html=1;" vertex="1" parent="1">
          <mxGeometry x="80" y="367" width="207" height="30" as="geometry" />
        </mxCell>
        <mxCell id="VzMq9Z7by6uNYJWWXD4P-22" value="+nama: char" style="text;strokeColor=none;fillColor=none;align=left;verticalAlign=middle;spacingLeft=4;spacingRight=4;overflow=hidden;points=[[0,0.5],[1,0.5]];portConstraint=eastwest;rotatable=0;whiteSpace=wrap;html=1;" vertex="1" parent="1">
          <mxGeometry x="80" y="397" width="207" height="16" as="geometry" />
        </mxCell>
        <mxCell id="VzMq9Z7by6uNYJWWXD4P-23" value="+anggota: char" style="text;strokeColor=none;fillColor=none;align=left;verticalAlign=middle;spacingLeft=4;spacingRight=4;overflow=hidden;points=[[0,0.5],[1,0.5]];portConstraint=eastwest;rotatable=0;whiteSpace=wrap;html=1;" vertex="1" parent="1">
          <mxGeometry x="80" y="417" width="207" height="30" as="geometry" />
        </mxCell>
        <mxCell id="VzMq9Z7by6uNYJWWXD4P-27" value="" style="rounded=0;whiteSpace=wrap;html=1;" vertex="1" parent="1">
          <mxGeometry x="590" y="367" width="170" height="130" as="geometry" />
        </mxCell>
        <mxCell id="VzMq9Z7by6uNYJWWXD4P-28" value="" style="rounded=0;whiteSpace=wrap;html=1;" vertex="1" parent="1">
          <mxGeometry x="590" y="320" width="170" height="47" as="geometry" />
        </mxCell>
        <mxCell id="VzMq9Z7by6uNYJWWXD4P-29" value="Siswa" style="text;html=1;strokeColor=none;fillColor=none;align=center;verticalAlign=middle;whiteSpace=wrap;rounded=0;" vertex="1" parent="1">
          <mxGeometry x="630" y="328.5" width="90" height="30" as="geometry" />
        </mxCell>
        <mxCell id="VzMq9Z7by6uNYJWWXD4P-30" value="+id: int" style="text;strokeColor=none;fillColor=none;align=left;verticalAlign=middle;spacingLeft=4;spacingRight=4;overflow=hidden;points=[[0,0.5],[1,0.5]];portConstraint=eastwest;rotatable=0;whiteSpace=wrap;html=1;" vertex="1" parent="1">
          <mxGeometry x="590" y="367" width="207" height="30" as="geometry" />
        </mxCell>
        <mxCell id="VzMq9Z7by6uNYJWWXD4P-31" value="+nama: char" style="text;strokeColor=none;fillColor=none;align=left;verticalAlign=middle;spacingLeft=4;spacingRight=4;overflow=hidden;points=[[0,0.5],[1,0.5]];portConstraint=eastwest;rotatable=0;whiteSpace=wrap;html=1;" vertex="1" parent="1">
          <mxGeometry x="590" y="397" width="207" height="16" as="geometry" />
        </mxCell>
        <mxCell id="VzMq9Z7by6uNYJWWXD4P-32" value="+anggota: char" style="text;strokeColor=none;fillColor=none;align=left;verticalAlign=middle;spacingLeft=4;spacingRight=4;overflow=hidden;points=[[0,0.5],[1,0.5]];portConstraint=eastwest;rotatable=0;whiteSpace=wrap;html=1;" vertex="1" parent="1">
          <mxGeometry x="590" y="413" width="207" height="30" as="geometry" />
        </mxCell>
        <mxCell id="VzMq9Z7by6uNYJWWXD4P-34" value="" style="endArrow=none;html=1;rounded=0;entryX=0.994;entryY=0.646;entryDx=0;entryDy=0;entryPerimeter=0;" edge="1" parent="1" target="VzMq9Z7by6uNYJWWXD4P-3">
          <mxGeometry width="50" height="50" relative="1" as="geometry">
            <mxPoint x="650" y="320" as="sourcePoint" />
            <mxPoint x="450" y="280" as="targetPoint" />
          </mxGeometry>
        </mxCell>
        <mxCell id="VzMq9Z7by6uNYJWWXD4P-35" value="" style="endArrow=classic;html=1;rounded=0;exitX=0.465;exitY=0.011;exitDx=0;exitDy=0;exitPerimeter=0;" edge="1" parent="1" source="VzMq9Z7by6uNYJWWXD4P-43">
          <mxGeometry width="50" height="50" relative="1" as="geometry">
            <mxPoint x="440" y="320" as="sourcePoint" />
            <mxPoint x="420" y="260" as="targetPoint" />
          </mxGeometry>
        </mxCell>
        <mxCell id="VzMq9Z7by6uNYJWWXD4P-38" value="+kelas: char" style="text;strokeColor=none;fillColor=none;align=left;verticalAlign=middle;spacingLeft=4;spacingRight=4;overflow=hidden;points=[[0,0.5],[1,0.5]];portConstraint=eastwest;rotatable=0;whiteSpace=wrap;html=1;" vertex="1" parent="1">
          <mxGeometry x="590" y="440" width="207" height="30" as="geometry" />
        </mxCell>
        <mxCell id="VzMq9Z7by6uNYJWWXD4P-39" value="+keperluan: teks" style="text;strokeColor=none;fillColor=none;align=left;verticalAlign=middle;spacingLeft=4;spacingRight=4;overflow=hidden;points=[[0,0.5],[1,0.5]];portConstraint=eastwest;rotatable=0;whiteSpace=wrap;html=1;" vertex="1" parent="1">
          <mxGeometry x="340" y="220" width="207" height="30" as="geometry" />
        </mxCell>
        <mxCell id="VzMq9Z7by6uNYJWWXD4P-40" value="+keperluan: teks" style="text;strokeColor=none;fillColor=none;align=left;verticalAlign=middle;spacingLeft=4;spacingRight=4;overflow=hidden;points=[[0,0.5],[1,0.5]];portConstraint=eastwest;rotatable=0;whiteSpace=wrap;html=1;" vertex="1" parent="1">
          <mxGeometry x="80" y="447" width="207" height="30" as="geometry" />
        </mxCell>
        <mxCell id="VzMq9Z7by6uNYJWWXD4P-41" value="+keperluan: teks" style="text;strokeColor=none;fillColor=none;align=left;verticalAlign=middle;spacingLeft=4;spacingRight=4;overflow=hidden;points=[[0,0.5],[1,0.5]];portConstraint=eastwest;rotatable=0;whiteSpace=wrap;html=1;" vertex="1" parent="1">
          <mxGeometry x="590" y="460" width="207" height="30" as="geometry" />
        </mxCell>
        <mxCell id="VzMq9Z7by6uNYJWWXD4P-42" value="" style="rounded=0;whiteSpace=wrap;html=1;" vertex="1" parent="1">
          <mxGeometry x="340" y="386.5" width="170" height="130" as="geometry" />
        </mxCell>
        <mxCell id="VzMq9Z7by6uNYJWWXD4P-43" value="" style="rounded=0;whiteSpace=wrap;html=1;" vertex="1" parent="1">
          <mxGeometry x="340" y="339.5" width="170" height="47" as="geometry" />
        </mxCell>
        <mxCell id="VzMq9Z7by6uNYJWWXD4P-44" value="staff" style="text;html=1;strokeColor=none;fillColor=none;align=center;verticalAlign=middle;whiteSpace=wrap;rounded=0;" vertex="1" parent="1">
          <mxGeometry x="380" y="348" width="90" height="30" as="geometry" />
        </mxCell>
      </root>
    </mxGraphModel>
  </diagram>
</mxfile>
